<svg width="20" height="20" viewBox="0 0 20 20" fill="none" xmlns="http://www.w3.org/2000/svg">
<g opacity="0.4" clip-path="url(#clip0_101_1404)">
<path fill-rule="evenodd" clip-rule="evenodd" d="M13.8916 10.9417C15.0333 11.7167 15.8333 12.7667 15.8333 14.1667V16.6667H19.1666V14.1667C19.1666 12.35 16.1916 11.275 13.8916 10.9417Z" fill="#141A18" fill-opacity="0.6"/>
<path d="M7.49984 10C9.34079 10 10.8332 8.50761 10.8332 6.66666C10.8332 4.82571 9.34079 3.33333 7.49984 3.33333C5.65889 3.33333 4.1665 4.82571 4.1665 6.66666C4.1665 8.50761 5.65889 10 7.49984 10Z" fill="#141A18" fill-opacity="0.6"/>
<path fill-rule="evenodd" clip-rule="evenodd" d="M12.4999 10C14.3416 10 15.8333 8.50833 15.8333 6.66666C15.8333 4.82499 14.3416 3.33333 12.4999 3.33333C12.1083 3.33333 11.7416 3.41666 11.3916 3.53333C12.0833 4.39166 12.4999 5.48333 12.4999 6.66666C12.4999 7.85 12.0833 8.94166 11.3916 9.8C11.7416 9.91666 12.1083 10 12.4999 10Z" fill="#141A18" fill-opacity="0.6"/>
<path fill-rule="evenodd" clip-rule="evenodd" d="M7.49992 10.8333C5.27492 10.8333 0.833252 11.95 0.833252 14.1667V16.6667H14.1666V14.1667C14.1666 11.95 9.72492 10.8333 7.49992 10.8333Z" fill="#141A18" fill-opacity="0.6"/>
</g>
<defs>
<clipPath id="clip0_101_1404">
<rect width="20" height="20" fill="white"/>
</clipPath>
</defs>
</svg>
