<svg width="20" height="20" viewBox="0 0 20 20" fill="none" xmlns="http://www.w3.org/2000/svg">
<g opacity="0.4" clip-path="url(#clip0_101_1425)">
<path d="M9.16675 7.63333V1.66666C5.00008 2.08333 1.66675 5.65833 1.66675 10C1.66675 14.3417 5.00008 17.9167 9.16675 18.3333V12.3667C8.33342 12.025 7.50008 11.1 7.50008 10C7.50008 8.9 8.33342 7.975 9.16675 7.63333ZM12.3834 9.16666H18.3334C17.9334 5.20833 15.0001 2.05833 10.8334 1.66666V7.63333C11.6667 7.88333 12.1001 8.45 12.3834 9.16666ZM10.8334 12.3667V18.3333C15.0001 17.9417 17.9334 14.7917 18.3334 10.8333H12.3834C12.1001 11.55 11.6667 12.1167 10.8334 12.3667Z" fill="#141A18" fill-opacity="0.6"/>
</g>
<defs>
<clipPath id="clip0_101_1425">
<rect width="20" height="20" fill="white"/>
</clipPath>
</defs>
</svg>
