<svg width="123" height="32" viewBox="0 0 123 32" fill="none" xmlns="http://www.w3.org/2000/svg">
<path d="M31.9629 20.31C32.1742 19.4034 31.4535 18.5842 30.5291 18.5842H22.6612C21.2462 18.5842 20.0992 19.7398 20.0992 21.1653V30.5203C20.0992 31.5323 21.0499 32.273 21.985 31.9035C26.944 29.9438 30.7252 25.6207 31.9629 20.31Z" fill="#14B890"/>
<path d="M10.015 31.9035C10.9501 32.273 11.9008 31.5323 11.9008 30.5203V21.1653C11.9008 19.7398 10.7538 18.5842 9.33884 18.5842H1.47094C0.546504 18.5842 -0.174246 19.4034 0.0370707 20.31C1.2748 25.6207 5.05602 29.9438 10.015 31.9035Z" fill="#14B890"/>
<path d="M28.9243 10.3245C30.0145 10.3245 30.7501 9.21247 30.2043 8.26164C27.3695 3.32291 22.0699 0 16 0C9.93007 0 4.63051 3.32291 1.79573 8.26164C1.24996 9.21247 1.98555 10.3245 3.07576 10.3245L28.9243 10.3245Z" fill="#14B890"/>
<path d="M47.6742 24.2447C48.9645 24.2447 49.7098 23.4772 49.7098 22.1201V11.2411H52.5352C53.6142 11.2411 54.3484 10.6405 54.3484 9.59483C54.3484 8.54921 53.6365 7.94853 52.5352 7.94853H42.8243C41.7119 7.94853 41 8.54921 41 9.59483C41 10.6405 41.7342 11.2411 42.8243 11.2411H45.6386V22.1201C45.6386 23.4772 46.3839 24.2447 47.6742 24.2447Z" fill="#2C3030"/>
<path d="M57.6138 24.1779C59.071 24.1779 60.5505 23.4994 61.2068 22.2758H61.2846V22.5539C61.3959 23.7108 62.1411 24.2558 63.1868 24.2558C64.3103 24.2558 65.1223 23.6218 65.1223 22.2758V15.6906C65.1223 13.2545 62.9754 11.5971 59.7384 11.5971C56.9575 11.5971 54.933 12.5092 54.4213 14.0109C54.3323 14.2445 54.299 14.4447 54.299 14.7228C54.299 15.5682 54.9664 16.1578 55.9119 16.1578C56.5126 16.1578 57.0131 15.9353 57.4692 15.4792C58.2256 14.6561 58.6928 14.4114 59.5382 14.4114C60.5727 14.4114 61.2624 14.9453 61.2624 15.9131V16.6027L58.4258 16.7696C55.289 16.9587 53.5426 18.2268 53.5426 20.496C53.5426 22.6874 55.3557 24.1779 57.6138 24.1779ZM59.0154 21.4638C58.0699 21.4638 57.4358 20.9966 57.4358 20.2291C57.4358 19.5171 58.0254 19.0388 59.0599 18.961L61.2624 18.8163V19.6506C61.2624 20.7296 60.2167 21.4638 59.0154 21.4638Z" fill="#2C3030"/>
<path d="M73.7115 10.062C75.6137 10.062 77.1265 9.10539 77.5937 7.71494C77.6716 7.50359 77.7049 7.29224 77.7049 7.10313C77.7049 6.44684 77.2822 5.9574 76.6148 5.9574C76.1142 5.9574 75.8028 6.21324 75.6026 6.71381C75.2688 7.54808 74.746 8.18213 73.7115 8.18213C72.677 8.18213 72.1653 7.54808 71.8205 6.71381C71.6203 6.21324 71.3088 5.9574 70.8083 5.9574C70.1408 5.9574 69.707 6.44684 69.707 7.10313C69.707 7.29224 69.7515 7.50359 69.8294 7.72606C70.3077 9.11652 71.8094 10.062 73.7115 10.062ZM69.8739 24.2558C70.964 24.2558 71.6092 23.8999 72.1208 23.01L75.7472 17.0254H75.8361V22.2758C75.8361 23.5995 76.6259 24.2558 77.7494 24.2558C78.8729 24.2558 79.6738 23.5995 79.6738 22.2647V13.7551C79.6738 12.4536 78.8173 11.6305 77.4824 11.6305C76.4146 11.6305 75.7694 11.9864 75.2355 12.8763L71.6314 18.7274H71.5424V13.6216C71.5424 12.2868 70.7526 11.6305 69.618 11.6305C68.4945 11.6305 67.6936 12.2868 67.6936 13.6105V22.1312C67.6936 23.4327 68.4389 24.2558 69.8739 24.2558Z" fill="#2C3030"/>
<path d="M84.0687 24.2558C85.3034 24.2558 86.0376 23.5217 86.0376 22.2424V14.8007H89.9198V22.2424C89.9198 23.5217 90.6539 24.2558 91.8886 24.2558C93.1234 24.2558 93.8575 23.5217 93.8575 22.2424V14.022C93.8575 12.665 93.1123 11.8863 91.8219 11.8863H84.1355C82.8451 11.8863 82.0998 12.665 82.0998 14.022V22.2424C82.0998 23.5217 82.834 24.2558 84.0687 24.2558Z" fill="#2C3030"/>
<path d="M98.5348 28.3493C99.6806 28.3493 100.504 27.6819 100.504 26.3026V21.931H100.582C101.171 23.3326 102.506 24.1779 104.286 24.1779C107.3 24.1779 109.069 21.8976 109.069 17.9487C109.069 13.9887 107.289 11.7083 104.23 11.7083C102.484 11.7083 101.171 12.5871 100.559 14.0443H100.481V13.6661C100.481 12.2868 99.6695 11.6305 98.5237 11.6305C97.3669 11.6305 96.5548 12.2868 96.5548 13.655V26.3026C96.5548 27.6819 97.378 28.3493 98.5348 28.3493ZM102.762 21.0967C101.371 21.0967 100.493 19.8731 100.481 17.9487C100.493 16.0354 101.382 14.7896 102.762 14.7896C104.152 14.7896 105.042 16.0243 105.042 17.9487C105.042 19.8731 104.163 21.0967 102.762 21.0967Z" fill="#2C3030"/>
<path d="M116.746 24.2892C120.562 24.2892 122.942 21.9866 122.942 17.9376C122.942 13.9664 120.528 11.5971 116.746 11.5971C112.986 11.5971 110.55 13.9776 110.55 17.9376C110.55 21.9755 112.931 24.2892 116.746 24.2892ZM116.746 21.397C115.389 21.397 114.555 20.1623 114.555 17.9487C114.555 15.7685 115.411 14.4892 116.746 14.4892C118.092 14.4892 118.949 15.7685 118.949 17.9487C118.949 20.1623 118.092 21.397 116.746 21.397Z" fill="#2C3030"/>
</svg>
